# xmcd
#
# Track frame offsets:
#	150
#	17778
#	40337
#	58864
#	79761
#	97754
#	115194
#	133452
#	147197
#	165688
#	185002
#	208560
#
# Disc length: 3076 seconds
#
# Revision: 1
# Processed by: cddbd v1.4PL0 Copyright (c) Steve Scherf et al.
# Submitted via: EasyCDDAExtractor 5.0.6
#
DISCID=a90c020c
DTITLE=Mark DuFresne - Have Another Round
DYEAR=1999
DGENRE=Blues
TTITLE0=The Stalker
TTITLE1=Crow Between Two Hats
TTITLE2=Sveedish Wife Exchange Club
TTITLE3=Long Legs
TTITLE4=That's How Much
TTITLE5=Hell Is What You Make It
TTITLE6=You Never Know
TTITLE7=Addicted
TTITLE8=Spongecake
TTITLE9=Troubadour
TTITLE10=Kharma Wheel
TTITLE11=Twelve Billion Years
EXTD=
EXTT0=
EXTT1=
EXTT2=
EXTT3=
EXTT4=
EXTT5=
EXTT6=
EXTT7=
EXTT8=
EXTT9=
EXTT10=
EXTT11=
PLAYORDER=
